HIERARCHY
ROOT Hips
{
	OFFSET 0.000000 97.167313 0.000000
	CHANNELS 6 Xposition Yposition Zposition Xrotation Yrotation Zrotation
	JOINT Spine
	{
		OFFSET 0.000000 13.784798 0.064400
		CHANNELS 3 Xrotation Yrotation Zrotation
		JOINT Spine1
		{
			OFFSET 0.000000 12.037903 0.404700
			CHANNELS 3 Xrotation Yrotation Zrotation
			JOINT Spine2
			{
				OFFSET 0.000000 17.795601 0.420200
				CHANNELS 3 Xrotation Yrotation Zrotation
				JOINT Neck
				{
					OFFSET 0.000000 39.131302 11.954600
					CHANNELS 3 Xrotation Yrotation Zrotation
					JOINT Head
					{
						OFFSET 0.000000 14.456192 15.627699
						CHANNELS 3 Xrotation Yrotation Zrotation
						JOINT HeadTop_End
						{
							OFFSET 0.000000 15.703506 7.603401
							CHANNELS 3 Xrotation Yrotation Zrotation
							End Site
							{
								OFFSET 0.000000 17.447403 0.000000
							}
						}
					}
				}
				JOINT LeftShoulder
				{
					OFFSET 17.399500 24.608795 1.168800
					CHANNELS 3 Xrotation Yrotation Zrotation
					JOINT LeftArm
					{
						OFFSET 18.980635 5.765305 1.818600
						CHANNELS 3 Xrotation Yrotation Zrotation
						JOINT LeftForeArm
						{
							OFFSET 49.290169 0.000000 0.000000
							CHANNELS 3 Xrotation Yrotation Zrotation
							JOINT LeftHand
							{
								OFFSET 31.562012 0.000000 0.000000
								CHANNELS 3 Xrotation Yrotation Zrotation
								JOINT LeftHandThumb1
								{
									OFFSET 6.133995 -4.388519 7.076070
									CHANNELS 3 Xrotation Yrotation Zrotation
									JOINT LeftHandThumb2
									{
										OFFSET 6.037666 -3.485840 3.485847
										CHANNELS 3 Xrotation Yrotation Zrotation
										JOINT LeftHandThumb3
										{
											OFFSET 6.496506 -3.750763 3.750761
											CHANNELS 3 Xrotation Yrotation Zrotation
											JOINT LeftHandThumb4
											{
												OFFSET 5.616882 -3.242905 3.242910
												CHANNELS 3 Xrotation Yrotation Zrotation
												End Site
												{
													OFFSET -1.254608 7.132141 0.375429
												}
											}
										}
									}
								}
								JOINT LeftHandPinky1
								{
									OFFSET 18.920792 -0.453171 -11.426712
									CHANNELS 3 Xrotation Yrotation Zrotation
									JOINT LeftHandPinky2
									{
										OFFSET 4.919586 0.000000 0.000000
										CHANNELS 3 Xrotation Yrotation Zrotation
										JOINT LeftHandPinky3
										{
											OFFSET 5.233047 0.000000 0.000000
											CHANNELS 3 Xrotation Yrotation Zrotation
											JOINT LeftHandPinky4
											{
												OFFSET 5.571716 0.000000 0.000000
												CHANNELS 3 Xrotation Yrotation Zrotation
												End Site
												{
													OFFSET -3.459808 4.342407 -0.466164
												}
											}
										}
									}
								}
								JOINT LeftHandRing1
								{
									OFFSET 22.726120 -0.094986 -6.500475
									CHANNELS 3 Xrotation Yrotation Zrotation
									JOINT LeftHandRing2
									{
										OFFSET 6.408615 0.000000 0.000000
										CHANNELS 3 Xrotation Yrotation Zrotation
										JOINT LeftHandRing3
										{
											OFFSET 6.150223 0.000000 0.000000
											CHANNELS 3 Xrotation Yrotation Zrotation
											JOINT LeftHandRing4
											{
												OFFSET 6.145386 0.000000 0.000000
												CHANNELS 3 Xrotation Yrotation Zrotation
												End Site
												{
													OFFSET -3.671402 4.923981 -0.202372
												}
											}
										}
									}
								}
								JOINT LeftHandMiddle1
								{
									OFFSET 23.373947 0.000000 0.000001
									CHANNELS 3 Xrotation Yrotation Zrotation
									JOINT LeftHandMiddle2
									{
										OFFSET 6.996567 0.000000 0.000000
										CHANNELS 3 Xrotation Yrotation Zrotation
										JOINT LeftHandMiddle3
										{
											OFFSET 7.015945 0.000000 0.000000
											CHANNELS 3 Xrotation Yrotation Zrotation
											JOINT LeftHandMiddle4
											{
												OFFSET 7.721573 0.000000 0.000000
												CHANNELS 3 Xrotation Yrotation Zrotation
												End Site
												{
													OFFSET -4.651108 6.158463 0.251582
												}
											}
										}
									}
								}
								JOINT LeftHandIndex1
								{
									OFFSET 21.310577 -0.490082 6.209344
									CHANNELS 3 Xrotation Yrotation Zrotation
									JOINT LeftHandIndex2
									{
										OFFSET 7.536453 0.000000 0.000000
										CHANNELS 3 Xrotation Yrotation Zrotation
										JOINT LeftHandIndex3
										{
											OFFSET 7.512344 0.000000 0.000000
											CHANNELS 3 Xrotation Yrotation Zrotation
											JOINT LeftHandIndex4
											{
												OFFSET 10.212402 0.000000 0.000001
												CHANNELS 3 Xrotation Yrotation Zrotation
												End Site
												{
													OFFSET -5.180801 8.690506 1.388433
												}
											}
										}
									}
								}
							}
						}
					}
				}
				JOINT RightShoulder
				{
					OFFSET -17.399500 24.608795 1.168800
					CHANNELS 3 Xrotation Yrotation Zrotation
					JOINT RightArm
					{
						OFFSET -18.980635 5.765305 1.818600
						CHANNELS 3 Xrotation Yrotation Zrotation
						JOINT RightForeArm
						{
							OFFSET -49.290169 0.000000 0.000000
							CHANNELS 3 Xrotation Yrotation Zrotation
							JOINT RightHand
							{
								OFFSET -31.562012 0.000000 0.000000
								CHANNELS 3 Xrotation Yrotation Zrotation
								JOINT RightHandThumb1
								{
									OFFSET -6.133995 -4.388519 7.076070
									CHANNELS 3 Xrotation Yrotation Zrotation
									JOINT RightHandThumb2
									{
										OFFSET -6.037666 -3.485840 3.485847
										CHANNELS 3 Xrotation Yrotation Zrotation
										JOINT RightHandThumb3
										{
											OFFSET -6.496506 -3.750763 3.750761
											CHANNELS 3 Xrotation Yrotation Zrotation
											JOINT RightHandThumb4
											{
												OFFSET -5.616882 -3.242905 3.242910
												CHANNELS 3 Xrotation Yrotation Zrotation
												End Site
												{
													OFFSET 1.254608 7.132141 0.375429
												}
											}
										}
									}
								}
								JOINT RightHandIndex1
								{
									OFFSET -21.310577 -0.490082 6.209344
									CHANNELS 3 Xrotation Yrotation Zrotation
									JOINT RightHandIndex2
									{
										OFFSET -7.536453 0.000000 0.000000
										CHANNELS 3 Xrotation Yrotation Zrotation
										JOINT RightHandIndex3
										{
											OFFSET -7.512344 0.000000 0.000000
											CHANNELS 3 Xrotation Yrotation Zrotation
											JOINT RightHandIndex4
											{
												OFFSET -10.212402 0.000000 0.000001
												CHANNELS 3 Xrotation Yrotation Zrotation
												End Site
												{
													OFFSET 5.180801 8.690506 1.388433
												}
											}
										}
									}
								}
								JOINT RightHandMiddle1
								{
									OFFSET -23.373947 0.000000 0.000001
									CHANNELS 3 Xrotation Yrotation Zrotation
									JOINT RightHandMiddle2
									{
										OFFSET -6.996567 0.000000 0.000000
										CHANNELS 3 Xrotation Yrotation Zrotation
										JOINT RightHandMiddle3
										{
											OFFSET -7.015945 0.000000 0.000000
											CHANNELS 3 Xrotation Yrotation Zrotation
											JOINT RightHandMiddle4
											{
												OFFSET -7.721573 0.000000 0.000000
												CHANNELS 3 Xrotation Yrotation Zrotation
												End Site
												{
													OFFSET 4.651108 6.158463 0.251582
												}
											}
										}
									}
								}
								JOINT RightHandRing1
								{
									OFFSET -22.726120 -0.094986 -6.500475
									CHANNELS 3 Xrotation Yrotation Zrotation
									JOINT RightHandRing2
									{
										OFFSET -6.408615 0.000000 0.000000
										CHANNELS 3 Xrotation Yrotation Zrotation
										JOINT RightHandRing3
										{
											OFFSET -6.150223 0.000000 0.000000
											CHANNELS 3 Xrotation Yrotation Zrotation
											JOINT RightHandRing4
											{
												OFFSET -6.145386 0.000000 0.000000
												CHANNELS 3 Xrotation Yrotation Zrotation
												End Site
												{
													OFFSET 3.671402 4.923981 -0.202372
												}
											}
										}
									}
								}
								JOINT RightHandPinky1
								{
									OFFSET -18.920792 -0.453171 -11.426712
									CHANNELS 3 Xrotation Yrotation Zrotation
									JOINT RightHandPinky2
									{
										OFFSET -4.919586 0.000000 0.000000
										CHANNELS 3 Xrotation Yrotation Zrotation
										JOINT RightHandPinky3
										{
											OFFSET -5.233047 0.000000 0.000000
											CHANNELS 3 Xrotation Yrotation Zrotation
											JOINT RightHandPinky4
											{
												OFFSET -5.571716 0.000000 0.000000
												CHANNELS 3 Xrotation Yrotation Zrotation
												End Site
												{
													OFFSET 3.459808 4.342407 -0.466164
												}
											}
										}
									}
								}
							}
						}
					}
				}
			}
		}
	}
	JOINT LeftUpLeg
	{
		OFFSET 19.899099 -7.885101 -3.429500
		CHANNELS 3 Xrotation Yrotation Zrotation
		JOINT LeftLeg
		{
			OFFSET 1.745560 -36.997807 10.304700
			CHANNELS 3 Xrotation Yrotation Zrotation
			JOINT LeftFoot
			{
				OFFSET -1.745558 -29.803308 -13.615400
				CHANNELS 3 Xrotation Yrotation Zrotation
				JOINT LeftToeBase
				{
					OFFSET 1.181900 -18.539904 15.226099
					CHANNELS 3 Xrotation Yrotation Zrotation
					JOINT LeftToe_End
					{
						OFFSET -0.863701 1.402801 16.534700
						CHANNELS 3 Xrotation Yrotation Zrotation
						End Site
						{
							OFFSET 0.000000 16.616566 0.000000
						}
					}
				}
			}
		}
	}
	JOINT RightUpLeg
	{
		OFFSET -19.899099 -7.885101 -3.429500
		CHANNELS 3 Xrotation Yrotation Zrotation
		JOINT RightLeg
		{
			OFFSET -1.745560 -36.997807 10.304700
			CHANNELS 3 Xrotation Yrotation Zrotation
			JOINT RightFoot
			{
				OFFSET 1.745558 -29.803308 -13.615400
				CHANNELS 3 Xrotation Yrotation Zrotation
				JOINT RightToeBase
				{
					OFFSET -1.181900 -18.539904 15.226099
					CHANNELS 3 Xrotation Yrotation Zrotation
					JOINT RightToe_End
					{
						OFFSET 0.863701 1.402801 16.534700
						CHANNELS 3 Xrotation Yrotation Zrotation
						End Site
						{
							OFFSET 0.000000 16.616566 0.000000
						}
					}
				}
			}
		}
	}
}
MOTION
Frames: 4
Frame Time: 0.033333
-3.291226 71.767265 2.096150 11.715292 -49.552257 11.573094 10.987006 2.848427 -2.325936 6.100713 5.566527 -4.284681 -5.786922 6.328143 -3.046186 2.318612 9.363293 -0.265415 -4.146718 23.161916 -3.523305 0.000001 -0.000000 -0.000000 -1.878307 -16.206587 -2.875567 -10.643421 2.188463 -45.501839 -22.862364 -25.786257 -15.871632 2.491036 -2.511864 6.860428 18.457989 -9.513805 13.216586 -1.150193 11.255372 -8.400811 5.706545 8.483109 -0.820748 0.000002 -0.000002 0.000003 2.010398 6.305958 -22.386508 -0.815368 -0.210750 -16.746464 -2.232638 0.018978 -34.673848 0.000000 0.000001 -0.000000 3.024624 7.938951 -14.103465 -0.708023 -0.566234 -18.895746 -0.726368 -0.705027 -22.058437 0.000000 0.000001 0.000005 1.884745 4.663368 -4.597368 0.476681 -1.009854 -12.986456 0.628542 -1.346620 -16.553998 0.000002 -0.000000 0.000004 -1.232783 -5.771935 -0.192323 0.133954 -0.197696 -4.602112 0.055728 -0.448184 -7.568185 -0.000003 0.000005 0.000000 -5.077477 24.381701 1.487358 6.644608 -34.771889 57.611525 -21.032017 44.833826 19.961715 -0.087231 35.608518 7.474273 55.149570 18.649545 -29.698308 -0.442557 -14.180537 7.313145 21.666960 -29.244493 9.142356 -0.000000 0.000000 0.000001 5.673406 7.585023 36.844134 1.050485 3.824496 68.900223 0.499549 3.026040 62.196474 -0.000002 -0.000002 0.000003 -0.125697 1.886076 45.000756 -1.168980 3.204667 68.417643 -0.936428 1.813657 41.107572 -0.000003 0.000001 -0.000004 -5.311985 1.216650 58.508807 -0.745226 1.667587 48.011278 -0.816436 1.840619 53.666569 -0.000002 0.000002 -0.000007 -7.756811 -9.376443 47.263970 -0.526058 1.541582 45.600539 -0.508181 0.803442 24.986611 -0.000003 -0.000002 0.000002 -67.366443 23.100393 46.058544 44.372887 -22.217994 2.151778 7.292792 2.062702 -14.543462 -0.694585 -6.107082 1.234783 0.000000 0.000001 0.000000 -26.334549 0.642632 -35.035947 51.314009 9.953614 -3.035045 -31.274753 -8.054309 28.067576 0.528325 2.970041 1.471353 -0.000000 0.000003 -0.000000 
-3.331573 71.882401 1.948945 11.466727 -50.750372 11.728811 10.941137 2.804681 -2.297494 6.004983 5.499460 -4.232602 -5.881685 6.251796 -3.009073 2.670882 9.967818 -0.516896 -4.220158 23.242364 -3.854165 -0.000000 0.000000 -0.000000 -1.808996 -13.992075 -3.859862 -9.927233 2.607597 -44.211251 -21.134566 -26.787213 -15.191336 2.323880 -2.948267 7.744991 18.457987 -9.513805 13.216585 -1.104510 11.331913 -8.412354 5.741105 8.565032 -0.828243 0.000002 0.000002 -0.000002 1.865358 6.273177 -22.984372 -0.822880 -0.246950 -17.422839 -2.249759 -0.008466 -35.350348 -0.000000 0.000000 -0.000002 2.966751 7.720397 -14.748752 -0.716619 -0.597921 -19.559240 -0.736462 -0.736921 -22.721922 -0.000000 -0.000002 0.000005 1.868622 4.486835 -5.252232 0.470880 -1.039498 -13.650008 0.617017 -1.376584 -17.217742 -0.000004 -0.000003 0.000001 -1.232939 -5.793878 -0.769111 0.132051 -0.220343 -5.178863 0.051484 -0.474221 -8.144846 -0.000002 0.000005 0.000002 -5.276034 22.565524 1.991486 11.373307 -34.377449 60.525011 -22.183433 50.095152 22.321410 2.276160 27.414839 1.165755 55.149574 18.649543 -29.698301 -0.442553 -14.180533 7.313147 21.666960 -29.244497 9.142354 0.000001 -0.000001 0.000001 5.673405 7.585021 36.844137 1.050484 3.824497 68.900223 0.499548 3.026035 62.196481 -0.000004 -0.000003 -0.000002 -0.125696 1.886075 45.000756 -1.168978 3.204667 68.417636 -0.936433 1.813656 41.107572 -0.000001 0.000002 -0.000001 -5.311984 1.216646 58.508801 -0.745225 1.667587 48.011278 -0.816440 1.840621 53.666572 -0.000001 -0.000001 -0.000002 -7.756810 -9.376444 47.263980 -0.526056 1.541583 45.600542 -0.508178 0.803442 24.986611 -0.000002 0.000000 0.000001 -66.089430 23.492314 46.507267 44.132038 -21.546783 2.359280 6.767434 2.093438 -15.344898 -0.541803 -5.899007 0.967051 0.000000 0.000001 -0.000000 -27.155533 1.160859 -35.089185 51.506258 10.467229 -3.077543 -30.782980 -7.281715 27.755645 0.528330 2.970056 1.471322 -0.000000 0.000001 -0.000000 
-3.434488 72.170898 1.690809 10.991570 -52.690446 11.762216 10.965349 2.547199 -2.239965 6.043538 5.016463 -4.131585 -5.833736 5.758418 -3.010282 3.364637 11.214874 -0.453012 -4.559766 23.438339 -4.909715 -0.000001 0.000000 -0.000000 -1.716891 -11.974745 -4.926711 -9.128716 3.085329 -42.693419 -18.926753 -28.757583 -14.318553 2.303734 -4.018902 9.097348 18.457989 -9.513808 13.216589 -0.979764 11.541022 -8.443978 5.835571 8.788486 -0.849019 -0.000001 -0.000001 0.000003 1.467831 6.198602 -24.616842 -0.855081 -0.342296 -19.268546 -2.302710 -0.079887 -37.196548 0.000003 0.000003 -0.000004 2.785383 7.130577 -16.507672 -0.741456 -0.690000 -21.369620 -0.769742 -0.830057 -24.532276 -0.000001 0.000001 0.000002 1.806026 4.007091 -7.037819 0.441657 -1.126959 -15.460857 0.585047 -1.464109 -19.028767 0.000004 -0.000000 0.000004 -1.229563 -5.858753 -2.342475 0.125683 -0.291165 -6.752467 0.036383 -0.548568 -9.718295 -0.000003 0.000003 -0.000003 -5.605581 19.950390 3.237146 14.954617 -33.917299 59.732771 -24.512057 52.189817 25.397073 3.418538 21.281085 -1.573338 55.149574 18.649541 -29.698308 -0.442555 -14.180538 7.313145 21.666963 -29.244497 9.142352 0.000000 0.000000 0.000002 5.673408 7.585020 36.844137 1.050481 3.824497 68.900223 0.499546 3.026032 62.196474 -0.000000 -0.000002 0.000003 -0.125694 1.886079 45.000753 -1.168978 3.204669 68.417643 -0.936429 1.813660 41.107565 0.000002 -0.000000 -0.000006 -5.311982 1.216650 58.508801 -0.745226 1.667590 48.011278 -0.816434 1.840619 53.666576 0.000001 0.000001 -0.000003 -7.756807 -9.376443 47.263973 -0.526054 1.541584 45.600539 -0.508179 0.803443 24.986613 -0.000003 0.000000 0.000004 -64.065262 24.212770 47.378707 43.524308 -20.627173 2.620539 6.084560 2.173595 -16.588856 -0.317294 -5.560530 0.574146 -0.000000 0.000000 -0.000000 -28.352943 1.786897 -34.868283 51.574355 11.214634 -3.164861 -29.864435 -5.985150 27.187380 0.528336 2.970058 1.471354 -0.000000 0.000002 -0.000000 
-3.616714 72.583275 1.326719 10.679605 -55.285563 11.712500 11.012637 2.049258 -2.160052 6.118273 4.074187 -3.927798 -5.743305 4.794553 -3.005637 3.889563 13.065759 -0.050050 -4.642265 23.901130 -6.680395 -0.000001 0.000000 -0.000001 -1.532816 -9.980288 -6.007173 -8.559935 3.803590 -40.981917 -16.292250 -31.266202 -13.103802 2.405596 -5.381576 10.786612 18.457994 -9.513806 13.216586 -0.794314 11.851413 -8.491622 5.975947 9.120257 -0.880314 0.000001 -0.000000 0.000001 0.874832 6.128169 -27.043016 -0.908312 -0.481834 -22.008611 -2.385289 -0.182766 -39.937274 0.000001 -0.000001 0.000001 2.454140 6.275272 -19.114592 -0.786371 -0.825888 -24.057188 -0.830037 -0.966306 -27.219871 -0.000003 0.000000 0.000003 1.662929 3.302490 -9.686192 0.394449 -1.255039 -18.149153 0.537819 -1.593869 -21.717268 0.000001 -0.000000 0.000004 -1.222745 -5.960829 -4.677904 0.113171 -0.395830 -9.088428 0.012842 -0.658224 -12.054142 -0.000001 0.000003 0.000001 -6.010161 15.841681 5.302594 15.525392 -32.033536 53.490145 -27.999293 50.623778 29.774154 4.434105 16.464939 -2.585596 55.149567 18.649543 -29.698308 -0.442551 -14.180538 7.313145 21.666963 -29.244497 9.142352 -0.000002 0.000000 0.000002 5.673401 7.585017 36.844137 1.050483 3.824503 68.900223 0.499550 3.026033 62.196481 -0.000001 0.000002 0.000001 -0.125702 1.886078 45.000753 -1.168979 3.204667 68.417636 -0.936432 1.813656 41.107569 0.000002 -0.000001 -0.000001 -5.311988 1.216645 58.508801 -0.745226 1.667590 48.011278 -0.816435 1.840622 53.666569 -0.000003 0.000001 -0.000007 -7.756810 -9.376445 47.263977 -0.526054 1.541586 45.600539 -0.508177 0.803441 24.986610 -0.000002 0.000000 0.000004 -61.487835 24.863004 48.500685 42.730446 -19.130947 3.256912 5.231585 2.315361 -18.595521 -0.086934 -5.082269 0.171790 -0.000000 0.000001 -0.000000 -30.052265 2.371371 -33.993927 51.425809 12.085546 -3.304905 -28.482206 -4.239805 26.356249 0.528350 2.970021 1.471348 0.000000 -0.000001 -0.000000 
